<svg width="178" height="36" viewBox="0 0 178 36" fill="none" xmlns="http://www.w3.org/2000/svg">
<path d="M0 4.27759V31.0125C0 33.375 1.91515 35.2901 4.27759 35.2901H31.0125C33.375 35.2901 35.2901 33.375 35.2901 31.0125V8.90655C35.2901 7.23596 33.9358 5.88168 32.2652 5.88168H32.1812C30.557 5.88168 29.2404 4.56502 29.2404 2.94084C29.2404 1.31666 27.9237 0 26.2995 0H4.27759C1.91514 0 0 1.91515 0 4.27759Z" fill="#009CF3"/>
<path fill-rule="evenodd" clip-rule="evenodd" d="M24.7575 11.8171C25.2359 11.8171 25.6238 11.4293 25.6238 10.9509V8.35205C25.6238 7.87362 25.2359 7.48578 24.7575 7.48578H16.0948H12.6297C12.1513 7.48578 11.7635 7.87362 11.7635 8.35204L11.7634 11.8171L11.7635 13.8314C11.7635 14.3098 12.1513 14.6977 12.6297 14.6977H15.2286C15.707 14.6977 16.0948 14.3098 16.0948 13.8314V12.6834C16.0948 12.205 16.4827 11.8171 16.9611 11.8171L24.7575 11.8171ZM19.9932 21.3461C20.4717 21.3461 20.8595 20.9583 20.8595 20.4798V17.881C20.8595 17.4026 20.4717 17.0148 19.9932 17.0148H16.0948L12.6299 17.0148C12.1515 17.0148 11.7636 17.4026 11.7636 17.881L11.7635 26.9769C11.7635 27.4553 12.1513 27.8432 12.6297 27.8432H15.2285C15.707 27.8432 16.0948 27.4553 16.0948 26.9769V22.2124C16.0948 21.734 16.4826 21.3461 16.9611 21.3461L19.9932 21.3461Z" fill="white"/>
<path d="M57.1479 9.09597C57.8705 9.09597 58.1036 9.32906 58.1036 10.0516V11.6133C58.1036 12.3125 57.8705 12.5456 57.1479 12.5456H50.6216V15.8788H55.9825C56.7051 15.8788 56.9382 16.1118 56.9382 16.8344V18.3961C56.9382 19.0953 56.7051 19.3284 55.9825 19.3284H50.6216V24.6894C50.6216 25.4119 50.3652 25.645 49.6659 25.645H47.7779C47.0787 25.645 46.8223 25.4119 46.8223 24.6894V10.0516C46.8223 9.32906 47.0787 9.09597 47.7779 9.09597H57.1479ZM64.241 19.9111C64.241 21.5893 65.2433 22.545 67.2012 22.545C69.1824 22.545 70.1614 21.5893 70.1614 19.9111V10.0516C70.1614 9.32906 70.3945 9.09597 71.117 9.09597H73.005C73.7043 9.09597 73.9607 9.32906 73.9607 10.0516V19.8179C73.9607 23.5706 71.6298 25.9946 67.2012 25.9946C62.7959 25.9946 60.465 23.5706 60.465 19.8179V10.0516C60.465 9.32906 60.6981 9.09597 61.4207 9.09597H63.3087C64.0079 9.09597 64.241 9.32906 64.241 10.0516V19.9111ZM76.5807 13.9675C76.5807 10.9607 78.8649 8.74634 83.2236 8.74634C86.6267 8.74634 88.3981 9.88846 89.4703 12.1727C89.7966 12.8253 89.6102 13.1517 88.9575 13.4314L87.1861 14.2005C86.58 14.4802 86.3237 14.3637 85.974 13.7344C85.4845 12.7554 84.6921 12.196 83.2236 12.196C81.3123 12.196 80.4732 12.6855 80.4732 13.8043C80.4732 15.063 82.0815 15.3193 83.9695 15.5291C86.6966 15.8554 90.0064 16.5547 90.0064 20.657C90.0064 23.8503 87.3725 25.9946 83.0838 25.9946C79.4476 25.9946 77.4431 24.6661 76.5341 22.2187C76.301 21.5427 76.4875 21.2397 77.1401 21.0066L78.8416 20.4006C79.5176 20.1442 79.774 20.2608 80.077 20.96C80.5431 21.9623 81.592 22.5683 83.0838 22.5683C85.065 22.5683 86.1838 22.0555 86.1838 20.7269C86.1838 19.5615 84.762 19.2352 83.0372 19.0487C80.2401 18.7224 76.5807 18.2562 76.5807 13.9675ZM92.5161 10.0283C92.5161 9.32906 92.7492 9.09597 93.4484 9.09597H95.383C96.0823 9.09597 96.3154 9.32906 96.3154 10.0283V24.7127C96.3154 25.4119 96.0823 25.645 95.383 25.645H93.4484C92.7492 25.645 92.5161 25.4119 92.5161 24.7127V10.0283ZM99.1859 15.0163C99.1859 11.1471 101.657 8.74634 106.062 8.74634C110.491 8.74634 112.961 11.1471 112.961 15.0163V19.7247C112.961 23.5939 110.491 25.9946 106.062 25.9946C101.657 25.9946 99.1859 23.5939 99.1859 19.7247V15.0163ZM109.162 14.9464C109.162 13.1283 108.043 12.2193 106.062 12.2193C104.104 12.2193 102.985 13.1283 102.985 14.9464V19.7946C102.985 21.6126 104.104 22.5217 106.062 22.5217C108.043 22.5217 109.162 21.6126 109.162 19.7946V14.9464ZM128.317 9.09597C129.016 9.09597 129.249 9.32906 129.249 10.0516V24.6894C129.249 25.4119 129.016 25.645 128.317 25.645H126.429C125.963 25.645 125.706 25.5285 125.497 25.2022L120.928 18.2562C119.786 16.5314 119.157 14.5269 118.97 13.8975H118.807C118.947 14.5735 119.46 16.6479 119.46 19.1186V24.6894C119.46 25.4119 119.203 25.645 118.504 25.645H116.779C116.08 25.645 115.824 25.4119 115.824 24.6894V10.0516C115.824 9.32906 116.08 9.09597 116.779 9.09597H118.714C119.203 9.09597 119.413 9.23582 119.623 9.53883L124.285 16.6013C125.497 18.4194 125.986 20.2374 126.196 20.7735H126.382C126.149 20.051 125.637 18.1164 125.637 15.6224V10.0516C125.637 9.32906 125.87 9.09597 126.592 9.09597H128.317Z" fill="#009CF3"/>
<path d="M139.79 9.09597C143.263 9.09597 145.501 11.1937 145.501 14.69C145.501 18.1863 143.31 20.2608 139.79 20.2608H136.387V24.6894C136.387 25.4119 136.13 25.645 135.431 25.645H133.543C132.844 25.645 132.588 25.4119 132.588 24.6894V10.0516C132.588 9.32906 132.844 9.09597 133.543 9.09597H139.79ZM139.394 16.7878C140.746 16.7878 141.561 16.0186 141.561 14.69C141.561 13.3614 140.769 12.5456 139.394 12.5456H136.387V16.7878H139.394ZM147.497 15.0163C147.497 11.1471 149.968 8.74634 154.373 8.74634C158.802 8.74634 161.273 11.1471 161.273 15.0163V19.7247C161.273 23.5939 158.802 25.9946 154.373 25.9946C149.968 25.9946 147.497 23.5939 147.497 19.7247V15.0163ZM157.473 14.9464C157.473 13.1283 156.355 12.2193 154.373 12.2193C152.416 12.2193 151.297 13.1283 151.297 14.9464V19.7946C151.297 21.6126 152.416 22.5217 154.373 22.5217C156.355 22.5217 157.473 21.6126 157.473 19.7946V14.9464ZM163.552 13.9675C163.552 10.9607 165.837 8.74634 170.195 8.74634C173.598 8.74634 175.37 9.88846 176.442 12.1727C176.768 12.8253 176.582 13.1517 175.929 13.4314L174.158 14.2005C173.552 14.4802 173.295 14.3637 172.946 13.7344C172.456 12.7554 171.664 12.196 170.195 12.196C168.284 12.196 167.445 12.6855 167.445 13.8043C167.445 15.063 169.053 15.3193 170.941 15.5291C173.668 15.8554 176.978 16.5547 176.978 20.657C176.978 23.8503 174.344 25.9946 170.055 25.9946C166.419 25.9946 164.415 24.6661 163.506 22.2187C163.273 21.5427 163.459 21.2397 164.112 21.0066L165.813 20.4006C166.489 20.1442 166.746 20.2608 167.049 20.96C167.515 21.9623 168.564 22.5683 170.055 22.5683C172.037 22.5683 173.156 22.0555 173.156 20.7269C173.156 19.5615 171.734 19.2352 170.009 19.0487C167.212 18.7224 163.552 18.2562 163.552 13.9675Z" fill="white"/>
<rect x="30.926" width="4.27759" height="4.27759" rx="2.13879" fill="#009CF3"/>
</svg>
