<svg width="25" height="24" viewBox="0 0 25 24" fill="none" xmlns="http://www.w3.org/2000/svg">
<path d="M20.1036 4.77011L12.6596 2.53689C12.5554 2.50561 12.4443 2.50561 12.34 2.53689L4.89595 4.77011C4.66081 4.84065 4.49976 5.05711 4.49976 5.30263V13.4911C4.49976 14.5561 4.93094 15.6464 5.78127 16.7316C6.4307 17.5604 7.32922 18.3926 8.45176 19.2052C10.3376 20.5702 12.1945 21.4076 12.2727 21.4426C12.3449 21.475 12.4224 21.4912 12.4998 21.4912C12.5773 21.4912 12.6548 21.475 12.727 21.4426C12.8051 21.4076 14.662 20.5702 16.5478 19.2052C17.6704 18.3926 18.5688 17.5604 19.2183 16.7316C20.0686 15.6464 20.4998 14.5562 20.4998 13.4911V5.30263C20.4998 5.05711 20.3388 4.84065 20.1036 4.77011Z" fill="white"/>
</svg>
