<svg width="24" height="25" viewBox="0 0 24 25" fill="none" xmlns="http://www.w3.org/2000/svg">
<g clip-path="url(#clip0_1_1704)">
<path d="M12 24.645C18.6274 24.645 24 19.2724 24 12.645C24 6.0176 18.6274 0.64502 12 0.64502C5.37258 0.64502 0 6.0176 0 12.645C0 19.2724 5.37258 24.645 12 24.645Z" fill="#039BE5"/>
<path d="M5.49102 12.385L17.061 7.92398C17.598 7.72998 18.067 8.05498 17.893 8.86698L17.894 8.86598L15.924 18.147C15.778 18.805 15.387 18.965 14.84 18.655L11.84 16.444L10.393 17.838C10.233 17.998 10.098 18.133 9.78802 18.133L10.001 15.08L15.561 10.057C15.803 9.84398 15.507 9.72398 15.188 9.93598L8.31702 14.262L5.35502 13.338C4.71202 13.134 4.69802 12.695 5.49102 12.385Z" fill="white"/>
</g>
<defs>
<clipPath id="clip0_1_1704">
<rect width="24" height="24" fill="white" transform="translate(0 0.64502)"/>
</clipPath>
</defs>
</svg>
