<svg width="20" height="19" viewBox="0 0 20 19" fill="none" xmlns="http://www.w3.org/2000/svg">
<g clip-path="url(#clip0_2003_2950)">
<path d="M15.8188 10.3135C15.5116 9.92559 15.5995 9.75301 15.8188 9.40626C15.8227 9.4023 18.3584 5.89838 18.6197 4.71009L18.6213 4.7093C18.7511 4.27626 18.6213 3.95801 17.9935 3.95801H15.9162C15.3873 3.95801 15.1435 4.23113 15.0129 4.53672C15.0129 4.53672 13.9552 7.06847 12.4589 8.70959C11.976 9.1838 11.7528 9.3358 11.4892 9.3358C11.3593 9.3358 11.1574 9.1838 11.1574 8.75076V4.7093C11.1574 4.18997 11.0094 3.95801 10.5716 3.95801H7.30519C6.97348 3.95801 6.77636 4.20026 6.77636 4.42588C6.77636 4.9183 7.52448 5.03151 7.60207 6.41692V9.42288C7.60207 10.0815 7.48253 10.2027 7.21732 10.2027C6.51115 10.2027 4.79719 7.66063 3.78148 4.75126C3.57644 4.1868 3.37615 3.9588 2.84336 3.9588H0.765234C0.172276 3.9588 0.0527344 4.23192 0.0527344 4.53751C0.0527344 5.07742 0.758901 7.76197 3.33657 11.3086C5.05448 13.7295 7.47382 15.0413 9.67465 15.0413C10.9975 15.0413 11.159 14.75 11.159 14.2489C11.159 11.9356 11.0395 11.7171 11.7021 11.7171C12.0093 11.7171 12.5381 11.8691 13.7731 13.0368C15.1847 14.4215 15.4166 15.0413 16.2067 15.0413H18.284C18.8762 15.0413 19.1762 14.75 19.0037 14.1753C18.6086 12.9664 15.9391 10.4798 15.8188 10.3135V10.3135Z" fill="#009CF3"/>
</g>
<defs>
<clipPath id="clip0_2003_2950">
<rect width="19" height="19" fill="white" transform="translate(0.0527344)"/>
</clipPath>
</defs>
</svg>
