<svg width="24" height="25" viewBox="0 0 24 25" fill="none" xmlns="http://www.w3.org/2000/svg">
<g clip-path="url(#clip0_1_1707)">
<path d="M12.003 0.64502H11.997C5.3805 0.64502 0 6.02702 0 12.645C0 15.27 0.846 17.703 2.2845 19.6785L0.789 24.1365L5.4015 22.662C7.299 23.919 9.5625 24.645 12.003 24.645C18.6195 24.645 24 19.2615 24 12.645C24 6.02852 18.6195 0.64502 12.003 0.64502Z" fill="#4CAF50"/>
<path d="M18.9855 17.5905C18.696 18.408 17.547 19.086 16.6305 19.284C16.0035 19.4175 15.1845 19.524 12.4275 18.381C8.90101 16.92 6.63002 13.3365 6.45302 13.104C6.28352 12.8715 5.02802 11.2065 5.02802 9.48448C5.02802 7.76248 5.90252 6.92398 6.25502 6.56398C6.54452 6.26848 7.02301 6.13348 7.48201 6.13348C7.63051 6.13348 7.76401 6.14098 7.88402 6.14698C8.23652 6.16198 8.41351 6.18298 8.64601 6.73948C8.93551 7.43698 9.64051 9.15898 9.72451 9.33598C9.81001 9.51298 9.89551 9.75298 9.77552 9.98548C9.66301 10.2255 9.56401 10.332 9.38701 10.536C9.21001 10.74 9.04201 10.896 8.86501 11.115C8.70301 11.3055 8.52001 11.5095 8.72401 11.862C8.92801 12.207 9.63301 13.3575 10.671 14.2815C12.0105 15.474 13.0965 15.855 13.485 16.017C13.7745 16.137 14.1195 16.1085 14.331 15.8835C14.5995 15.594 14.931 15.114 15.2685 14.6415C15.5085 14.3025 15.8115 14.2605 16.1295 14.3805C16.4535 14.493 18.168 15.3405 18.5205 15.516C18.873 15.693 19.1055 15.777 19.191 15.9255C19.275 16.074 19.275 16.7715 18.9855 17.5905Z" fill="#FAFAFA"/>
</g>
<defs>
<clipPath id="clip0_1_1707">
<rect width="24" height="24" fill="white" transform="translate(0 0.64502)"/>
</clipPath>
</defs>
</svg>
