<svg width="19" height="19" viewBox="0 0 19 19" fill="none" xmlns="http://www.w3.org/2000/svg">
<path d="M18.0299 5.04782C17.8247 4.28472 17.223 3.68318 16.46 3.4777C15.0662 3.09631 9.49051 3.09631 9.49051 3.09631C9.49051 3.09631 3.91508 3.09631 2.52119 3.46324C1.77288 3.6685 1.15655 4.28483 0.95129 5.04782C0.584473 6.44159 0.584473 9.3321 0.584473 9.3321C0.584473 9.3321 0.584473 12.2372 0.95129 13.6164C1.15677 14.3794 1.7582 14.9809 2.5213 15.1864C3.92975 15.5679 9.49072 15.5679 9.49072 15.5679C9.49072 15.5679 15.0662 15.5679 16.46 15.201C17.2231 14.9956 17.8247 14.3941 18.0302 13.6311C18.3969 12.2372 18.3969 9.34678 18.3969 9.34678C18.3969 9.34678 18.4115 6.44159 18.0299 5.04782V5.04782ZM7.71534 12.0025V6.66175L12.3518 9.3321L7.71534 12.0025Z" fill="#009CF3"/>
</svg>
