<svg width="178" height="36" viewBox="0 0 178 36" fill="none" xmlns="http://www.w3.org/2000/svg"><path d="M0 4.278v26.735a4.278 4.278 0 0 0 4.278 4.277h26.735a4.278 4.278 0 0 0 4.277-4.277V8.906a3.025 3.025 0 0 0-3.025-3.025h-.084a2.94 2.94 0 0 1-2.94-2.941A2.94 2.94 0 0 0 26.298 0H4.278A4.278 4.278 0 0 0 0 4.278z" fill="#009CF3"/><path fill-rule="evenodd" clip-rule="evenodd" d="M24.758 11.817a.866.866 0 0 0 .866-.866V8.352a.866.866 0 0 0-.866-.866H12.63a.866.866 0 0 0-.867.866V13.831c0 .479.388.867.867.867h2.599a.866.866 0 0 0 .866-.867v-1.148c0-.478.388-.866.866-.866h7.797zm-4.765 9.53a.866.866 0 0 0 .867-.867V17.88a.866.866 0 0 0-.867-.866H12.63a.866.866 0 0 0-.866.866v9.096c0 .478.387.866.866.866h2.598a.866.866 0 0 0 .867-.866v-4.765c0-.478.388-.866.866-.866h3.032z" fill="#fff"/><path d="M57.148 9.096c.722 0 .956.233.956.956v1.561c0 .7-.233.933-.956.933h-6.526v3.333h5.36c.723 0 .956.233.956.955v1.562c0 .7-.233.932-.956.932h-5.36v5.361c0 .723-.257.956-.956.956h-1.888c-.7 0-.956-.233-.956-.956V10.052c0-.723.257-.956.956-.956h9.37zm7.093 10.815c0 1.678 1.002 2.634 2.96 2.634 1.981 0 2.96-.956 2.96-2.634v-9.86c0-.722.233-.955.956-.955h1.888c.7 0 .956.233.956.956v9.766c0 3.753-2.331 6.177-6.76 6.177-4.405 0-6.736-2.424-6.736-6.177v-9.766c0-.723.233-.956.956-.956h1.888c.699 0 .932.233.932.956v9.86zm12.34-5.944c0-3.006 2.284-5.22 6.643-5.22 3.403 0 5.174 1.141 6.246 3.426.327.652.14.979-.513 1.258l-1.77.77c-.607.28-.863.163-1.213-.467-.49-.979-1.282-1.538-2.75-1.538-1.912 0-2.75.49-2.75 1.608 0 1.259 1.608 1.515 3.495 1.725 2.728.326 6.037 1.026 6.037 5.128 0 3.193-2.633 5.338-6.922 5.338-3.636 0-5.64-1.329-6.55-3.776-.233-.676-.047-.98.606-1.212l1.702-.606c.676-.257.932-.14 1.235.559.466 1.002 1.515 1.608 3.007 1.608 1.981 0 3.1-.513 3.1-1.841 0-1.166-1.422-1.492-3.147-1.678-2.797-.327-6.456-.793-6.456-5.082zm15.935-3.939c0-.699.233-.932.932-.932h1.935c.7 0 .932.233.932.932v14.685c0 .699-.233.932-.932.932h-1.935c-.699 0-.932-.233-.932-.932V10.028zm6.67 4.988c0-3.869 2.471-6.27 6.876-6.27 4.429 0 6.899 2.401 6.899 6.27v4.709c0 3.869-2.47 6.27-6.899 6.27-4.405 0-6.876-2.401-6.876-6.27v-4.709zm9.976-.07c0-1.818-1.119-2.727-3.1-2.727-1.958 0-3.077.91-3.077 2.727v4.849c0 1.818 1.119 2.727 3.077 2.727 1.981 0 3.1-.91 3.1-2.727v-4.849zm19.155-5.85c.699 0 .932.233.932.956v14.637c0 .723-.233.956-.932.956h-1.888c-.466 0-.723-.116-.932-.443l-4.569-6.946c-1.142-1.725-1.771-3.73-1.958-4.358h-.163c.14.675.653 2.75.653 5.22v5.571c0 .723-.257.956-.956.956h-1.725c-.699 0-.955-.233-.955-.956V10.052c0-.723.256-.956.955-.956h1.935c.489 0 .699.14.909.443l4.662 7.062c1.212 1.818 1.701 3.636 1.911 4.172h.186c-.233-.722-.745-2.657-.745-5.15v-5.571c0-.723.233-.956.955-.956h1.725z" fill="#009CF3"/><path d="M139.79 9.096c3.473 0 5.711 2.098 5.711 5.594 0 3.496-2.191 5.57-5.711 5.57h-3.403v4.43c0 .722-.257.955-.956.955h-1.888c-.699 0-.955-.233-.955-.956V10.052c0-.723.256-.956.955-.956h6.247zm-.396 7.692c1.352 0 2.167-.77 2.167-2.098 0-1.329-.792-2.144-2.167-2.144h-3.007v4.242h3.007zm8.103-1.772c0-3.869 2.471-6.27 6.876-6.27 4.429 0 6.9 2.401 6.9 6.27v4.709c0 3.869-2.471 6.27-6.9 6.27-4.405 0-6.876-2.401-6.876-6.27v-4.709zm9.976-.07c0-1.818-1.118-2.727-3.1-2.727-1.957 0-3.076.91-3.076 2.727v4.849c0 1.818 1.119 2.727 3.076 2.727 1.982 0 3.1-.91 3.1-2.727v-4.849zm6.079-.979c0-3.006 2.285-5.22 6.643-5.22 3.403 0 5.175 1.141 6.247 3.426.326.652.14.979-.513 1.258l-1.771.77c-.606.28-.863.163-1.212-.467-.49-.979-1.282-1.538-2.751-1.538-1.911 0-2.75.49-2.75 1.608 0 1.259 1.608 1.515 3.496 1.725 2.727.326 6.037 1.026 6.037 5.128 0 3.193-2.634 5.338-6.923 5.338-3.636 0-5.64-1.329-6.549-3.776-.233-.676-.047-.98.606-1.212l1.701-.606c.676-.257.933-.14 1.236.559.466 1.002 1.515 1.608 3.006 1.608 1.982 0 3.101-.513 3.101-1.841 0-1.166-1.422-1.492-3.147-1.678-2.797-.327-6.457-.793-6.457-5.082z" fill="#fff"/><rect x="30.926" width="4.278" height="4.278" rx="2.139" fill="#009CF3"/></svg>